<svg width="200" height="228" viewBox="0 0 200 228" fill="none" xmlns="http://www.w3.org/2000/svg">
<path d="M0 32C0 14.3269 14.3269 0 32 0H168C185.673 0 200 14.3269 200 32V196C200 213.673 185.673 228 168 228H32C14.3269 228 0 213.673 0 196V32Z" fill="#141313"/>
<path d="M44.3182 149H35.4545L61.0909 79.1818H69.8182L95.4545 149H86.5909L65.7273 90.2273H65.1818L44.3182 149ZM47.5909 121.727H83.3182V129.227H47.5909V121.727Z" fill="white"/>
<path d="M161.957 114.091C161.957 121.455 160.628 127.818 157.969 133.182C155.31 138.545 151.662 142.682 147.026 145.591C142.389 148.5 137.094 149.955 131.139 149.955C125.185 149.955 119.889 148.5 115.253 145.591C110.616 142.682 106.969 138.545 104.31 133.182C101.651 127.818 100.321 121.455 100.321 114.091C100.321 106.727 101.651 100.364 104.31 95C106.969 89.6364 110.616 85.5 115.253 82.5909C119.889 79.6818 125.185 78.2273 131.139 78.2273C137.094 78.2273 142.389 79.6818 147.026 82.5909C151.662 85.5 155.31 89.6364 157.969 95C160.628 100.364 161.957 106.727 161.957 114.091ZM153.776 114.091C153.776 108.045 152.764 102.943 150.741 98.7841C148.741 94.625 146.026 91.4773 142.594 89.3409C139.185 87.2045 135.366 86.1364 131.139 86.1364C126.912 86.1364 123.082 87.2045 119.651 89.3409C116.241 91.4773 113.526 94.625 111.503 98.7841C109.503 102.943 108.503 108.045 108.503 114.091C108.503 120.136 109.503 125.239 111.503 129.398C113.526 133.557 116.241 136.705 119.651 138.841C123.082 140.977 126.912 142.045 131.139 142.045C135.366 142.045 139.185 140.977 142.594 138.841C146.026 136.705 148.741 133.557 150.741 129.398C152.764 125.239 153.776 120.136 153.776 114.091Z" fill="white"/>
</svg>
